<svg width="20" height="20" viewBox="0 0 20 20" fill="none" xmlns="http://www.w3.org/2000/svg">
<path d="M12.9984 10.8762L11.9791 9.85695C12.0347 9.29177 11.8656 8.82756 11.4719 8.46432C11.0782 8.10107 10.6362 7.94723 10.1458 8.00278L9.12661 6.98357C9.25908 6.94084 9.39983 6.90879 9.54888 6.88743C9.6979 6.86605 9.84827 6.85537 9.99998 6.85537C10.876 6.85537 11.6196 7.16092 12.2307 7.77203C12.8418 8.38314 13.1474 9.12673 13.1474 10.0028C13.1474 10.1545 13.1367 10.3075 13.1153 10.4619C13.094 10.6163 13.055 10.7544 12.9984 10.8762ZM15.7532 13.6149L14.9583 12.8361C15.4583 12.4472 15.9132 12.0201 16.3229 11.5549C16.7326 11.0896 17.0764 10.5722 17.3541 10.0028C16.6736 8.6 15.6701 7.49931 14.3437 6.7007C13.0173 5.90209 11.5694 5.50278 9.99998 5.50278C9.63887 5.50278 9.2847 5.52362 8.93748 5.56528C8.59026 5.60695 8.24998 5.67639 7.91665 5.77362L7.02886 4.88582C7.5139 4.7042 8.00668 4.58107 8.50721 4.51643C9.00774 4.45179 9.50533 4.41947 9.99998 4.41947C11.8419 4.41947 13.551 4.91626 15.1274 5.90984C16.7037 6.90344 17.845 8.26775 18.5512 10.0028C18.2564 10.7197 17.8715 11.373 17.3966 11.9627C16.9217 12.5524 16.3739 13.1032 15.7532 13.6149ZM15.9679 17.5188L13.3878 14.9226C12.9188 15.1224 12.3966 15.2829 11.8213 15.4042C11.246 15.5255 10.6389 15.5861 9.99998 15.5861C8.15277 15.5861 6.44365 15.0893 4.87261 14.0957C3.30156 13.1021 2.16027 11.7378 1.44873 10.0028C1.77031 9.21112 2.20247 8.48622 2.74521 7.82809C3.28795 7.16998 3.90066 6.59307 4.58336 6.09734L2.484 4.01401L3.25802 3.23999L16.7419 16.7447L15.9679 17.5188ZM5.35738 6.89218C4.83388 7.27039 4.32239 7.72285 3.82292 8.24957C3.32345 8.77628 2.93108 9.36069 2.64581 10.0028C3.32637 11.4056 4.32984 12.5063 5.65623 13.3049C6.98262 14.1035 8.43054 14.5028 9.99998 14.5028C10.4626 14.5028 10.9236 14.4638 11.383 14.3858C11.8424 14.3078 12.2377 14.2138 12.5689 14.1037L11.3269 12.8778C11.1432 12.9632 10.93 13.03 10.6875 13.0781C10.445 13.1262 10.2158 13.1502 9.99998 13.1502C9.12393 13.1502 8.38034 12.8446 7.76923 12.2335C7.15812 11.6224 6.85256 10.8788 6.85256 10.0028C6.85256 9.79231 6.88355 9.56715 6.94552 9.3273C7.00749 9.08744 7.06732 8.87029 7.125 8.67585L5.35738 6.89218Z" fill="#222222"/>
</svg>
