<svg width="18" height="15" viewBox="0 0 18 15" fill="none" xmlns="http://www.w3.org/2000/svg">
<path d="M11.9984 7.87616L10.9791 6.85695C11.0347 6.29177 10.8656 5.82756 10.4719 5.46432C10.0782 5.10107 9.63619 4.94723 9.14581 5.00278L8.12661 3.98357C8.25908 3.94084 8.39983 3.90879 8.54888 3.88743C8.6979 3.86605 8.84827 3.85537 8.99998 3.85537C9.87604 3.85537 10.6196 4.16092 11.2307 4.77203C11.8418 5.38314 12.1474 6.12673 12.1474 7.00278C12.1474 7.15449 12.1367 7.30753 12.1153 7.46191C12.094 7.61628 12.055 7.75437 11.9984 7.87616ZM14.7532 10.6149L13.9583 9.83612C14.4583 9.44723 14.9132 9.02014 15.3229 8.55487C15.7326 8.08959 16.0764 7.57223 16.3541 7.00278C15.6736 5.6 14.6701 4.49931 13.3437 3.7007C12.0173 2.90209 10.5694 2.50278 8.99998 2.50278C8.63887 2.50278 8.2847 2.52362 7.93748 2.56528C7.59026 2.60695 7.24998 2.67639 6.91665 2.77362L6.02886 1.88582C6.5139 1.7042 7.00668 1.58107 7.50721 1.51643C8.00774 1.45179 8.50533 1.41947 8.99998 1.41947C10.8419 1.41947 12.551 1.91626 14.1274 2.90984C15.7037 3.90344 16.845 5.26775 17.5512 7.00278C17.2564 7.71966 16.8715 8.37296 16.3966 8.9627C15.9217 9.55243 15.3739 10.1032 14.7532 10.6149ZM14.9679 14.5188L12.3878 11.9226C11.9188 12.1224 11.3966 12.2829 10.8213 12.4042C10.246 12.5255 9.63887 12.5861 8.99998 12.5861C7.15277 12.5861 5.44365 12.0893 3.87261 11.0957C2.30156 10.1021 1.16027 8.73781 0.44873 7.00278C0.770314 6.21112 1.20247 5.48622 1.74521 4.82809C2.28795 4.16998 2.90066 3.59307 3.58336 3.09734L1.484 1.01401L2.25802 0.23999L15.7419 13.7447L14.9679 14.5188ZM4.35738 3.89218C3.83388 4.27039 3.32239 4.72285 2.82292 5.24957C2.32345 5.77628 1.93108 6.36069 1.64581 7.00278C2.32637 8.40556 3.32984 9.50626 4.65623 10.3049C5.98262 11.1035 7.43054 11.5028 8.99998 11.5028C9.46259 11.5028 9.92361 11.4638 10.383 11.3858C10.8424 11.3078 11.2377 11.2138 11.5689 11.1037L10.3269 9.87776C10.1432 9.96322 9.93001 10.03 9.68748 10.0781C9.44497 10.1262 9.2158 10.1502 8.99998 10.1502C8.12393 10.1502 7.38034 9.84464 6.76923 9.23353C6.15812 8.62242 5.85256 7.87884 5.85256 7.00278C5.85256 6.79231 5.88355 6.56715 5.94552 6.3273C6.00749 6.08744 6.06732 5.87029 6.125 5.67585L4.35738 3.89218Z" fill="#222222"/>
</svg>
