<svg width="18" height="12" viewBox="0 0 18 12" fill="none" xmlns="http://www.w3.org/2000/svg">
<path d="M9.00188 9.14742C9.87667 9.14742 10.6196 8.84124 11.2307 8.22888C11.8418 7.6165 12.1474 6.87291 12.1474 5.9981C12.1474 5.12331 11.8412 4.38036 11.2289 3.76925C10.6165 3.15814 9.87289 2.85258 8.99809 2.85258C8.12329 2.85258 7.38034 3.15876 6.76923 3.77112C6.15812 4.3835 5.85256 5.12709 5.85256 6.0019C5.85256 6.87669 6.15874 7.61964 6.77111 8.23075C7.38348 8.84186 8.12707 9.14742 9.00188 9.14742ZM8.99998 8C8.44443 8 7.9722 7.80556 7.58331 7.41667C7.19443 7.02778 6.99998 6.55556 6.99998 6C6.99998 5.44444 7.19443 4.97222 7.58331 4.58333C7.9722 4.19444 8.44443 4 8.99998 4C9.55554 4 10.0278 4.19444 10.4166 4.58333C10.8055 4.97222 11 5.44444 11 6C11 6.55556 10.8055 7.02778 10.4166 7.41667C10.0278 7.80556 9.55554 8 8.99998 8ZM9.00113 11.5833C7.13206 11.5833 5.42903 11.0756 3.89204 10.0601C2.35504 9.0446 1.20727 7.69124 0.44873 6C1.20727 4.30876 2.35466 2.9554 3.8909 1.93992C5.42712 0.924431 7.12977 0.416687 8.99883 0.416687C10.8679 0.416687 12.5709 0.924431 14.1079 1.93992C15.6449 2.9554 16.7927 4.30876 17.5512 6C16.7927 7.69124 15.6453 9.0446 14.1091 10.0601C12.5728 11.0756 10.8702 11.5833 9.00113 11.5833ZM8.99998 10.5C10.5555 10.5 11.993 10.0972 13.3125 9.29167C14.6319 8.48611 15.6458 7.38889 16.3541 6C15.6458 4.61111 14.6319 3.51389 13.3125 2.70833C11.993 1.90278 10.5555 1.5 8.99998 1.5C7.44443 1.5 6.00692 1.90278 4.68748 2.70833C3.36804 3.51389 2.35415 4.61111 1.64581 6C2.35415 7.38889 3.36804 8.48611 4.68748 9.29167C6.00692 10.0972 7.44443 10.5 8.99998 10.5Z" fill="#222222"/>
</svg>
