<svg width="20" height="18" viewBox="0 0 20 18" fill="none" xmlns="http://www.w3.org/2000/svg">
<path d="M5.03845 0.403866H15.0769L15.0769 11.4039L9.16124 17.247C8.96563 17.4402 8.65073 17.4392 8.45632 17.2448L8.36537 17.1539C8.27436 17.0628 8.19776 16.9462 8.13557 16.8039C8.07339 16.6616 8.0423 16.5308 8.0423 16.4116V16.2539L9.06537 11.4039L2.11537 11.4039C1.69742 11.4039 1.32371 11.2391 0.994225 10.9096C0.664742 10.5802 0.5 10.2064 0.5 9.78849V8.55772C0.5 8.46668 0.510258 8.36732 0.530775 8.25964C0.551275 8.15194 0.578192 8.05258 0.611525 7.96157L3.3423 1.48847C3.47948 1.18078 3.71025 0.923092 4.0346 0.715391C4.35897 0.507708 4.69358 0.403866 5.03845 0.403866ZM14.0769 1.40387H5.03845C4.89743 1.40387 4.75321 1.44233 4.60577 1.51924C4.45834 1.59617 4.34616 1.72438 4.26922 1.90387L1.58001 8.21606C1.52722 8.33999 1.5 8.4733 1.5 8.60801V9.78849C1.5 9.96798 1.55769 10.1154 1.67307 10.2308C1.78846 10.3462 1.93589 10.4039 2.11537 10.4039L9.07351 10.4039C9.70925 10.4039 10.1836 10.9893 10.0518 11.6112L9.18472 15.7016C9.17442 15.7502 9.23359 15.7825 9.26885 15.7475L11.6135 13.4212L13.7813 11.2703C13.9705 11.0825 14.0769 10.827 14.0769 10.5604L14.0769 1.40387ZM15.0769 11.4039V10.4039H18C18.2761 10.4039 18.5 10.18 18.5 9.90387L18.5 1.90387C18.5 1.62772 18.2761 1.40387 18 1.40387H15.0769V0.403866H18.5C19.0523 0.403866 19.5 0.851582 19.5 1.40387L19.5 10.4039C19.5 10.9562 19.0523 11.4039 18.5 11.4039H15.0769Z" fill="#222222"/>
</svg>
