<svg width="14" height="14" viewBox="0 0 14 14" fill="none" xmlns="http://www.w3.org/2000/svg">
<path d="M1.50002 12.5001H2.42627L10.6234 4.303L9.6971 3.37675L1.50002 11.5738V12.5001ZM0.416687 13.5834V11.1172L10.7838 0.734039C10.8959 0.619595 11.0165 0.538137 11.1456 0.489665C11.2748 0.441054 11.4102 0.416748 11.5517 0.416748C11.6934 0.416748 11.8286 0.439457 11.9573 0.484873C12.0862 0.53029 12.211 0.610706 12.3317 0.726123L13.2661 1.65237C13.3815 1.77307 13.4632 1.89807 13.5113 2.02737C13.5593 2.15668 13.5834 2.2898 13.5834 2.42675C13.5834 2.57272 13.5581 2.71203 13.5075 2.84466C13.4568 2.9773 13.3763 3.09855 13.2661 3.20841L2.88294 13.5834H0.416687ZM10.1521 3.848L9.6971 3.37675L10.6234 4.303L10.1521 3.848Z" fill="#1C1B1F"/>
</svg>
