<svg width="20" height="18" viewBox="0 0 20 18" fill="none" xmlns="http://www.w3.org/2000/svg">
<path d="M14.9615 17.5961H4.92308V6.59613L10.8388 0.753012C11.0344 0.559805 11.3493 0.560776 11.5437 0.755187L11.6346 0.846133C11.7256 0.93715 11.8022 1.05382 11.8644 1.19613C11.9266 1.33843 11.9577 1.4692 11.9577 1.58843V1.74613L10.9346 6.59613H17.8846C18.3026 6.59613 18.6763 6.76087 19.0058 7.09036C19.3353 7.41984 19.5 7.79356 19.5 8.21151V9.44228C19.5 9.53332 19.4897 9.63268 19.4692 9.74036C19.4487 9.84806 19.4218 9.94742 19.3885 10.0384L16.6577 16.5115C16.5205 16.8192 16.2898 17.0769 15.9654 17.2846C15.641 17.4923 15.3064 17.5961 14.9615 17.5961ZM5.92308 16.5961H14.9615C15.1026 16.5961 15.2468 16.5577 15.3942 16.4808C15.5417 16.4038 15.6538 16.2756 15.7308 16.0961L18.42 9.78394C18.4728 9.66001 18.5 9.5267 18.5 9.39199V8.21151C18.5 8.03202 18.4423 7.88459 18.3269 7.76921C18.2115 7.65382 18.0641 7.59613 17.8846 7.59613H10.9265C10.2908 7.59613 9.8164 7.01069 9.94823 6.38877L10.8153 2.29837C10.8256 2.24978 10.7664 2.21752 10.7312 2.2525L8.38654 4.57882L6.21874 6.7297C6.02951 6.91745 5.92308 7.173 5.92308 7.43957V16.5961ZM4.92308 6.59613V7.59613H2C1.72386 7.59613 1.5 7.81999 1.5 8.09613V16.0961C1.5 16.3723 1.72386 16.5961 2 16.5961H4.92308V17.5961H1.5C0.947715 17.5961 0.5 17.1484 0.5 16.5961V7.59613C0.5 7.04385 0.947715 6.59613 1.5 6.59613H4.92308Z" fill="#222222"/>
</svg>
