<svg width="22" height="22" viewBox="0 0 22 22" fill="none" xmlns="http://www.w3.org/2000/svg">
<path d="M15.9615 19.5961H5.92308V8.59613L11.8388 2.75301C12.0344 2.5598 12.3493 2.56078 12.5437 2.75519L12.6346 2.84613C12.7256 2.93715 12.8022 3.05382 12.8644 3.19613C12.9266 3.33843 12.9577 3.4692 12.9577 3.58843V3.74613L11.9346 8.59613H18.8846C19.3026 8.59613 19.6763 8.76087 20.0058 9.09036C20.3353 9.41984 20.5 9.79356 20.5 10.2115V11.4423C20.5 11.5333 20.4897 11.6327 20.4692 11.7404C20.4487 11.8481 20.4218 11.9474 20.3885 12.0384L17.6577 18.5115C17.5205 18.8192 17.2898 19.0769 16.9654 19.2846C16.641 19.4923 16.3064 19.5961 15.9615 19.5961ZM6.92308 18.5961H15.9615C16.1026 18.5961 16.2468 18.5577 16.3942 18.4808C16.5417 18.4038 16.6538 18.2756 16.7308 18.0961L19.42 11.7839C19.4728 11.66 19.5 11.5267 19.5 11.392V10.2115C19.5 10.032 19.4423 9.88459 19.3269 9.76921C19.2115 9.65382 19.0641 9.59613 18.8846 9.59613H11.9265C11.2908 9.59613 10.8164 9.01069 10.9482 8.38877L11.8153 4.29837C11.8256 4.24978 11.7664 4.21752 11.7312 4.2525L9.38654 6.57882L7.21874 8.7297C7.02951 8.91745 6.92308 9.173 6.92308 9.43957V18.5961ZM5.92308 8.59613V9.59613H3C2.72386 9.59613 2.5 9.81999 2.5 10.0961V18.0961C2.5 18.3723 2.72386 18.5961 3 18.5961H5.92308V19.5961H2.5C1.94771 19.5961 1.5 19.1484 1.5 18.5961V9.59613C1.5 9.04385 1.94772 8.59613 2.5 8.59613H5.92308Z" fill="#222222"/>
</svg>
