<svg width="18" height="18" viewBox="0 0 18 18" fill="none" xmlns="http://www.w3.org/2000/svg">
<path d="M17.969 0.949039L11.9798 17.6706C11.9084 17.8682 11.7208 17.9999 11.5107 18H11.351C11.155 18 10.9764 17.8874 10.8918 17.7105L8.53608 12.719C8.1892 11.9831 8.32346 11.1103 8.87547 10.5128L11.87 7.23833C12.0538 7.04551 12.0538 6.74232 11.87 6.5495L11.4907 6.17015C11.2979 5.98633 10.9948 5.98633 10.802 6.17015L7.52791 9.16505C6.9304 9.71711 6.05771 9.85139 5.32191 9.50447L0.330953 7.14848C0.138483 7.07601 0.00852244 6.89483 0.00155027 6.68926V6.52954C-0.0161266 6.30492 0.118842 6.09631 0.330953 6.0204L17.0506 0.0306031C17.2304 -0.0354106 17.4321 0.00725579 17.5697 0.140416L17.8292 0.399974C17.9852 0.536262 18.0408 0.754747 17.969 0.949039Z" fill="white"/>
</svg>
