<svg width="22" height="22" viewBox="0 0 22 22" fill="none" xmlns="http://www.w3.org/2000/svg">
<path d="M19.969 2.94904L13.9798 19.6706C13.9084 19.8682 13.7208 19.9999 13.5107 20H13.351C13.155 20 12.9764 19.8874 12.8918 19.7105L10.5361 14.719C10.1892 13.9831 10.3235 13.1103 10.8755 12.5128L13.87 9.23833C14.0538 9.04551 14.0538 8.74232 13.87 8.5495L13.4907 8.17015C13.2979 7.98633 12.9948 7.98633 12.802 8.17015L9.52791 11.165C8.9304 11.7171 8.05771 11.8514 7.32191 11.5045L2.33095 9.14848C2.13848 9.07601 2.00852 8.89483 2.00155 8.68926V8.52954C1.98387 8.30492 2.11884 8.09631 2.33095 8.0204L19.0506 2.0306C19.2304 1.96459 19.4321 2.00726 19.5697 2.14042L19.8292 2.39997C19.9852 2.53626 20.0408 2.75475 19.969 2.94904Z" fill="white"/>
</svg>
